<?xml version="1.0" encoding="utf-8"?>
<!-- Generator: Adobe Illustrator 25.4.1, SVG Export Plug-In . SVG Version: 6.00 Build 0)  -->
<svg version="1.1" id="레이어_1" xmlns="http://www.w3.org/2000/svg" xmlns:xlink="http://www.w3.org/1999/xlink" x="0px"
	 y="0px" viewBox="0 0 692.2 201.5" style="enable-background:new 0 0 692.2 201.5;" xml:space="preserve">
<style type="text/css">
	.st0{fill:#040000;}
</style>
<g>
	<path class="st0" d="M268.3,149.6c-22.9-8.6-49-3.2-66.6,13.8c-6.2,6-11.2,13.3-14.5,21.3v-47.8h22.5c35.3,0,64-28.7,64-64
		c0-35.3-28.7-64-64-64h-22.5h-41.5v64v64v64.7h37.1v0h4.7c0.4-3.5,1.2-6.9,2.2-10.2c2.9-9.3,8.2-17.8,15.3-24.6
		c6.3-6.1,13.8-10.5,21.8-13.3v48h41.5v-51.4V149.6z M187.4,12.8c18.5,0,35.7,11.8,44.8,27.4c5.7,9.7,8.6,20.9,8.6,32.2
		c0,23.7-12.4,44.1-30.3,53.8c-7,3.8-14.8,5.9-23.1,5.9C187.4,132.1,187.4,12.8,187.4,12.8z"/>
	<path class="st0" d="M66,0C29.6,0,0,29.6,0,66v23.5v23.6v85.5h0l0,2.4c3,0.4,6,0.6,9.1,0.6c21.2,0,43.4-8.7,58.6-23.3
		c9.3-8.9,16.5-19.8,20.8-31.5c0.5-1.2,0.9-2.5,1.3-3.7v49.9v5.7h41.5v-1.8v-3.8v-59.3h-28.9H89.9v0l-2.4,0
		c-0.8,3.9-1.9,7.8-3.3,11.5c-4.1,11-10.9,21.3-19.7,29.8c-15.2,14.6-37.8,22.9-58.8,21.9v-90.1c0-33.3,27.1-60.3,60.3-60.3
		s60.3,27.1,60.3,60.3h2.8h2.8V66C132,29.6,102.4,0,66,0z"/>
	<polygon class="st0" points="509.9,189.6 463.3,8.8 420.3,8.8 472.1,201.5 506.6,201.5 512.9,201.5 562.2,8.8 557.5,8.8 	"/>
	<path class="st0" d="M354,8.9c-40.7,0-73.7,43.1-73.7,96.3s33,96.3,73.7,96.3s73.7-43.1,73.7-96.3S394.7,8.9,354,8.9z M354.2,198.6
		c-21.2,0-38.5-41.7-38.5-93.3c0-51.5,17.2-93.3,38.5-93.3c21.2,0,38.5,41.7,38.5,93.3C392.7,156.9,375.5,198.6,354.2,198.6z"/>
	<polygon class="st0" points="692.2,14.4 692.2,7.1 611.1,7.1 611.1,7 572.3,7 572.3,201.8 611.1,201.8 611.1,201.7 692.2,201.7 
		692.2,194.4 611.1,194.4 611.1,108.4 692.2,108.4 692.2,102.5 611.1,102.5 611.1,14.4 	"/>
</g>
</svg>
